<svg width="16" height="22" viewBox="0 0 16 22" fill="none" xmlns="http://www.w3.org/2000/svg">
<path fill-rule="evenodd" clip-rule="evenodd" d="M7.92937 0.000854412C7.721 0.000854412 7.52117 0.0836289 7.37383 0.23097C7.22648 0.37831 7.14371 0.578147 7.14371 0.786519L7.14371 19.3172L2.20031 14.3722C2.05278 14.2247 1.8527 14.1418 1.64406 14.1418C1.43543 14.1418 1.23534 14.2247 1.08781 14.3722C0.940284 14.5197 0.857405 14.7198 0.857405 14.9285C0.857405 15.1371 0.940284 15.3372 1.08781 15.4847L7.37312 21.77C7.44611 21.8432 7.5328 21.9013 7.62826 21.9409C7.72371 21.9805 7.82603 22.0009 7.92937 22.0009C8.03272 22.0009 8.13504 21.9805 8.23049 21.9409C8.32594 21.9013 8.41264 21.8432 8.48562 21.77L14.7709 15.4847C14.844 15.4117 14.9019 15.325 14.9415 15.2295C14.981 15.1341 15.0013 15.0318 15.0013 14.9285C15.0013 14.7198 14.9185 14.5197 14.7709 14.3722C14.6234 14.2247 14.4233 14.1418 14.2147 14.1418C14.0061 14.1418 13.806 14.2247 13.6584 14.3722L8.71504 19.3172L8.71504 0.786519C8.71504 0.578147 8.63226 0.37831 8.48492 0.23097C8.33758 0.0836289 8.13775 0.000854412 7.92937 0.000854412Z" fill="white"/>
</svg>
