<svg width="51" height="18" viewBox="0 0 51 18" fill="none" xmlns="http://www.w3.org/2000/svg">
<path d="M7.49995 11.2L3.79995 1.09998H0.699951L5.39995 13.8H9.49995L14.2 1.09998H11.1L7.49995 11.2Z" fill="black"/>
<path d="M19.7 1H16.7V13.8H19.7V1Z" fill="black"/>
<path d="M29.3 0.800049C24 0.800049 22.9 2.50005 22.9 7.50005V18H25.9V12.5C25.9 12.5 26.3 14 29.4 14C34.3 14 35.5 12.2 35.5 7.30005C35.6 2.40005 34.5 0.800049 29.3 0.800049ZM29.2 11.4C26.3 11.4 25.9 10.8 25.9 7.40005C25.9 4.10005 26.4 3.40005 29.2 3.40005C32.1 3.40005 32.5 4.00005 32.5 7.40005C32.5 10.7 32 11.4 29.2 11.4Z" fill="black"/>
<path d="M44.5999 0.800049C39.2999 0.800049 38.2 2.50005 38.2 7.50005V18H41.2V12.5C41.2 12.5 41.6 14 44.7 14C49.6 14 50.7999 12.2 50.7999 7.30005C50.8999 2.40005 49.8999 0.800049 44.5999 0.800049ZM44.5 11.4C41.6 11.4 41.2 10.8 41.2 7.40005C41.2 4.10005 41.7 3.40005 44.5 3.40005C47.4 3.40005 47.7999 4.00005 47.7999 7.40005C47.8999 10.7 47.4 11.4 44.5 11.4Z" fill="black"/>
</svg>
